<?xml version="1.0" standalone="no"?>
<!DOCTYPE svg PUBLIC "-//W3C//DTD SVG 20010904//EN"
 "http://www.w3.org/TR/2001/REC-SVG-20010904/DTD/svg10.dtd">
<svg version="1.0" xmlns="http://www.w3.org/2000/svg"
 width="4040.000000pt" height="1180.000000pt" viewBox="0 0 4040.000000 1180.000000"
 preserveAspectRatio="xMidYMid meet">
<metadata>
Created by potrace 1.16, written by Peter Selinger 2001-2019
</metadata>
<g transform="translate(0.000000,1180.000000) scale(0.100000,-0.100000)"
fill="#000000" stroke="none">
<path d="M6093 11546 c-47 -39 -69 -46 -142 -46 -93 0 -103 -5 -201 -100 -98
-95 -108 -100 -200 -100 -92 0 -101 -5 -204 -104 -68 -66 -97 -87 -125 -92
-60 -10 -69 -14 -123 -57 -52 -40 -55 -41 -150 -47 -107 -7 -99 -3 -198 -100
-99 -97 -91 -93 -199 -100 -93 -6 -101 -8 -136 -39 -43 -37 -84 -57 -136 -66
-28 -4 -55 -23 -111 -78 -122 -118 -108 -110 -217 -117 l-98 -6 -53 -44 -53
-44 -98 -6 c-108 -7 -100 -3 -199 -100 -99 -97 -91 -93 -199 -100 -93 -6 -101
-8 -136 -39 -43 -37 -84 -57 -136 -66 -28 -4 -55 -23 -111 -78 -122 -118 -108
-110 -217 -117 -93 -6 -101 -8 -136 -39 -43 -37 -84 -57 -136 -66 -28 -4 -55
-23 -111 -78 -122 -118 -108 -110 -217 -117 -93 -6 -101 -8 -136 -39 -43 -37
-84 -57 -136 -66 -28 -4 -57 -25 -129 -95 -72 -70 -101 -91 -129 -95 -58 -10
-101 -33 -111 -61 -7 -17 -9 -325 -8 -861 l3 -835 28 -24 c43 -36 97 -33 144
9 71 62 82 67 165 67 101 0 109 4 208 100 98 95 108 100 200 100 92 0 101 5
204 104 68 66 97 87 125 92 60 10 69 14 123 57 52 40 55 41 150 47 107 7 99 3
198 100 99 97 91 93 199 100 93 6 101 8 136 39 43 37 84 57 136 66 28 4 55 23
111 78 122 118 108 110 217 117 93 6 101 8 136 39 43 37 84 57 136 66 28 4 55
23 111 78 122 118 108 110 217 117 l98 6 53 44 53 44 98 6 c108 7 100 3 199
100 99 97 91 93 199 100 93 6 101 8 136 39 43 37 84 57 136 66 28 4 55 23 111
78 122 118 108 110 217 117 93 6 101 8 135 38 46 40 81 58 130 65 25 4 56 21
90 49 l51 43 95 0 95 0 51 -43 c34 -28 65 -45 90 -49 49 -7 84 -25 130 -65 34
-30 42 -32 135 -38 109 -7 95 1 217 -117 56 -55 83 -74 111 -78 52 -9 93 -29
136 -66 35 -31 43 -33 136 -39 109 -7 95 1 217 -117 56 -55 83 -74 111 -78 52
-9 93 -29 136 -66 35 -31 43 -33 136 -39 108 -7 100 -3 199 -100 99 -97 91
-93 199 -100 l98 -6 53 -44 53 -44 100 -6 c107 -7 130 -19 142 -76 3 -13 7
-35 10 -48 12 -57 35 -69 142 -76 l100 -6 53 -44 53 -44 100 -6 c107 -7 130
-19 142 -76 3 -13 7 -35 10 -48 12 -57 34 -69 144 -76 90 -5 104 -9 128 -32
42 -39 95 -68 124 -68 14 0 41 -10 60 -23 19 -13 52 -36 73 -50 21 -15 51 -27
65 -27 29 0 82 -29 124 -68 24 -23 38 -27 127 -32 110 -7 96 1 217 -117 49
-47 85 -74 106 -78 18 -3 44 -8 58 -11 15 -3 50 -25 79 -50 84 -71 129 -61
235 54 l50 54 3 783 c1 502 -1 792 -8 809 -10 28 -53 51 -111 61 -28 4 -57 25
-129 95 -72 70 -101 91 -129 95 -52 9 -93 29 -136 66 -35 31 -43 33 -136 39
-88 5 -102 9 -126 32 -42 39 -95 68 -124 68 -14 0 -44 12 -65 27 -21 14 -54
37 -73 50 -19 13 -46 23 -61 23 -15 0 -45 12 -66 27 -21 14 -54 37 -73 50 -19
13 -46 23 -61 23 -15 0 -42 10 -61 23 -19 13 -52 36 -73 50 -21 15 -51 27 -66
27 -15 0 -45 12 -66 27 -21 14 -54 37 -73 50 -19 13 -46 23 -60 23 -29 0 -82
29 -124 68 -24 23 -38 27 -127 32 -110 7 -96 -1 -218 117 -56 55 -83 74 -111
78 -52 9 -93 29 -136 66 -35 31 -43 33 -136 39 -108 7 -100 3 -199 100 -99 97
-91 93 -199 100 l-98 6 -53 44 -53 44 -100 6 c-106 7 -131 19 -141 74 -3 11
-7 33 -10 47 -13 60 -35 72 -143 79 -96 6 -103 8 -138 39 -43 37 -84 57 -136
66 -28 4 -56 25 -125 91 -103 100 -111 104 -207 104 -75 0 -87 5 -157 58 -24
18 -55 35 -69 38 -14 3 -35 7 -47 9 -11 3 -42 21 -68 41 -26 20 -75 44 -107
54 -32 10 -73 30 -90 44 -38 32 -79 33 -116 2z"/>
<path d="M14754 10391 c-11 -5 -52 -40 -90 -77 -123 -120 -90 -108 -313 -114
l-198 -5 -38 -33 c-43 -38 -84 -58 -136 -67 -28 -4 -57 -25 -129 -95 -72 -69
-101 -91 -129 -96 -87 -14 -112 -39 -126 -126 -5 -30 -29 -60 -145 -178 -96
-98 -140 -150 -144 -171 -3 -16 -9 -42 -12 -58 -3 -18 -33 -58 -77 -104 -123
-126 -111 -100 -117 -266 l-5 -147 -45 -54 -45 -54 0 -246 0 -246 45 -54 45
-54 5 -197 c6 -223 -7 -189 117 -316 44 -46 74 -86 77 -104 3 -16 9 -43 12
-60 7 -35 506 -543 550 -559 14 -6 56 -10 94 -10 91 0 104 -6 186 -87 117
-113 104 -106 214 -113 l99 -6 53 -44 52 -45 197 -5 c221 -6 193 4 299 -100
104 -102 85 -94 249 -100 l147 -5 54 -45 54 -45 147 -5 c166 -6 140 6 266
-117 46 -44 86 -74 104 -77 16 -3 42 -9 59 -12 46 -9 158 -125 165 -172 9 -53
29 -94 67 -137 l33 -38 3 -221 c2 -122 0 -236 -3 -253 -4 -25 -50 -77 -203
-230 -262 -262 -225 -236 -342 -243 l-99 -6 -53 -44 -53 -45 -245 0 -246 0
-54 45 -54 45 -147 5 c-128 4 -150 8 -170 25 -113 98 -418 419 -423 445 -3 16
-8 43 -12 59 -3 18 -38 63 -94 121 -70 72 -91 101 -95 129 -14 86 -40 111
-126 125 -22 4 -56 23 -88 51 -68 58 -112 61 -168 12 -74 -64 -67 -62 -223
-67 l-146 -5 -54 -45 -54 -45 -197 -5 -197 -5 -54 -50 c-113 -105 -125 -152
-57 -231 52 -60 59 -80 59 -164 0 -92 5 -101 104 -204 66 -69 87 -97 91 -125
8 -46 26 -83 70 -145 19 -26 35 -59 35 -71 0 -50 27 -82 279 -334 196 -195
267 -261 290 -265 17 -3 44 -9 60 -12 18 -3 58 -33 104 -77 121 -118 107 -110
216 -117 l98 -6 53 -44 53 -44 98 -6 98 -6 53 -44 52 -45 246 -5 246 -5 54
-45 54 -45 196 0 196 0 54 45 54 45 196 5 196 5 52 45 53 44 99 6 99 6 53 44
52 45 147 5 c166 6 140 -6 266 117 42 41 86 74 101 77 15 3 42 8 60 11 53 11
459 420 467 472 14 84 48 123 107 123 19 0 85 32 89 42 0 2 4 49 8 105 l7 102
44 53 45 53 0 645 0 645 -45 53 -44 53 -6 99 c-7 110 1 96 -117 217 -44 46
-74 86 -77 104 -3 16 -9 43 -12 59 -8 43 -221 256 -264 264 -16 3 -43 8 -59
12 -18 3 -63 38 -121 94 -72 70 -101 91 -129 95 -46 8 -83 26 -145 70 -27 20
-60 35 -76 35 -15 0 -42 10 -61 23 -19 13 -52 36 -73 50 -21 15 -51 27 -65 27
-29 0 -82 29 -124 69 -27 25 -33 26 -175 31 l-148 5 -52 45 -53 44 -98 6 -98
6 -53 44 -53 44 -98 6 -98 6 -53 44 -52 45 -197 5 c-223 6 -189 -7 -316 117
-46 44 -86 74 -104 77 -16 3 -42 9 -59 12 -33 6 -146 112 -161 151 -12 32 -12
554 0 587 13 32 315 334 347 347 34 12 955 12 988 -1 27 -10 56 -56 56 -90 0
-57 40 -91 122 -105 27 -4 52 -21 98 -66 73 -72 80 -89 80 -179 0 -38 4 -80 9
-93 13 -32 216 -235 248 -248 31 -12 554 -12 585 0 14 5 56 40 94 78 123 119
90 107 315 113 254 6 243 -1 247 172 5 172 6 170 -98 278 -70 72 -91 101 -95
129 -8 46 -26 83 -70 145 -19 26 -35 59 -35 71 0 50 -29 84 -329 384 -274 274
-315 311 -348 316 -54 9 -95 28 -138 67 l-38 33 -148 5 c-143 5 -149 6 -176
31 -41 39 -94 69 -123 69 -29 0 -82 30 -123 69 l-28 26 -587 2 c-323 1 -596
-2 -608 -6z"/>
<path d="M25654 10391 c-11 -5 -52 -40 -90 -77 -123 -120 -90 -108 -313 -114
l-198 -5 -38 -33 c-43 -38 -84 -58 -136 -67 -28 -4 -57 -25 -129 -95 -72 -69
-101 -91 -129 -96 -87 -14 -112 -39 -126 -126 -5 -30 -30 -61 -145 -178 -115
-117 -140 -148 -145 -178 -8 -47 -26 -84 -70 -146 -20 -27 -35 -60 -35 -76 0
-15 -10 -42 -23 -61 -13 -19 -36 -52 -50 -73 -15 -21 -27 -51 -27 -65 0 -29
-29 -82 -69 -124 l-26 -28 0 -347 0 -347 45 -53 44 -53 6 -99 c5 -89 9 -103
32 -127 39 -42 68 -95 68 -124 0 -15 16 -49 35 -75 45 -62 62 -99 70 -147 5
-33 38 -70 266 -298 143 -143 271 -264 285 -269 14 -6 56 -10 94 -10 92 0 101
-5 204 -104 69 -66 97 -87 125 -91 52 -9 93 -29 136 -67 l38 -33 198 -5 c197
-5 198 -5 226 -31 41 -39 94 -69 123 -69 29 0 82 -30 123 -69 28 -26 29 -26
225 -31 l198 -5 52 -45 53 -44 97 -6 c95 -6 98 -7 150 -47 54 -43 62 -47 124
-58 32 -5 63 -31 198 -166 89 -88 165 -171 170 -185 13 -34 13 -655 0 -688
-10 -28 -53 -51 -112 -61 -52 -8 -165 -120 -173 -173 -19 -111 -27 -116 -205
-122 l-146 -5 -54 -45 -54 -45 -246 0 -246 0 -54 45 -54 45 -147 5 c-128 4
-150 8 -170 25 -78 68 -412 411 -420 432 -5 13 -9 35 -9 48 0 12 -16 45 -35
71 -44 62 -62 99 -70 146 -5 31 -26 57 -121 152 -127 128 -134 131 -252 124
-64 -3 -71 -6 -121 -48 l-53 -45 -197 -5 -197 -5 -54 -45 -54 -45 -147 -5
c-160 -5 -142 1 -228 -79 -88 -82 -94 -132 -26 -212 28 -33 47 -66 50 -88 8
-46 26 -83 70 -145 20 -27 35 -60 35 -76 0 -16 15 -49 35 -76 44 -62 62 -99
70 -145 4 -28 25 -57 95 -129 56 -58 91 -103 94 -121 4 -16 9 -43 12 -60 8
-44 419 -455 463 -463 17 -3 44 -9 60 -12 18 -3 58 -33 104 -77 121 -118 107
-110 216 -117 l98 -6 53 -44 53 -44 98 -6 98 -6 53 -44 52 -45 246 -5 246 -5
54 -45 54 -45 196 0 196 0 54 45 54 45 246 5 246 5 52 45 53 44 98 6 98 6 53
44 53 44 98 6 c109 7 95 -1 216 117 42 41 86 74 101 77 15 3 42 8 60 11 27 6
95 68 343 316 170 171 314 321 319 335 6 14 10 56 10 94 0 92 5 102 100 200
45 47 86 95 91 108 12 31 12 1054 0 1084 -5 14 -40 56 -78 94 -113 117 -106
104 -113 213 -6 97 -6 99 -48 149 -23 27 -45 65 -48 83 -14 80 -48 119 -104
119 -57 0 -91 40 -105 122 -7 47 -119 163 -165 172 -17 3 -43 8 -59 12 -18 3
-61 37 -117 91 -90 86 -116 103 -159 103 -12 0 -45 16 -71 35 -62 44 -99 62
-145 70 -28 4 -55 23 -111 78 -41 39 -85 81 -97 92 -21 18 -41 20 -220 25
l-197 5 -52 45 -53 44 -98 6 -98 6 -53 44 -53 44 -98 6 -98 6 -53 44 -52 45
-197 5 c-223 6 -189 -7 -316 117 -46 44 -86 74 -104 77 -16 3 -42 9 -59 12
-33 6 -146 112 -161 151 -12 32 -12 554 0 587 13 32 315 334 347 347 15 5 224
9 494 9 270 0 479 -4 494 -9 32 -13 334 -315 347 -347 5 -14 9 -36 9 -49 0
-12 16 -45 35 -71 44 -62 62 -99 70 -146 6 -40 106 -151 152 -169 31 -12 554
-12 585 0 14 5 56 40 94 78 123 119 90 107 315 113 259 7 244 -6 244 199 l0
148 -33 37 c-38 44 -58 85 -67 137 -4 28 -25 57 -95 129 -56 58 -91 103 -94
121 -4 16 -9 43 -12 60 -5 23 -80 104 -320 344 -277 278 -318 315 -351 320
-54 9 -95 28 -138 67 l-38 33 -148 5 c-143 5 -149 6 -176 31 -41 39 -94 69
-123 69 -29 0 -82 30 -123 69 l-28 26 -587 2 c-323 1 -596 -2 -608 -6z"/>
<path d="M18450 10187 c-53 -27 -50 106 -47 -2398 l2 -2335 45 -54 45 -54 5
-197 c5 -179 7 -199 25 -220 11 -12 53 -56 92 -97 55 -56 74 -83 78 -111 8
-46 26 -83 70 -145 19 -26 35 -59 35 -71 0 -43 17 -69 104 -159 66 -69 87 -97
91 -125 14 -86 39 -111 127 -126 30 -5 59 -28 161 -128 68 -67 134 -131 146
-142 20 -18 42 -21 171 -25 144 -5 150 -6 177 -31 41 -39 94 -69 123 -69 29 0
82 -30 123 -69 l28 -26 248 -5 247 -5 54 -45 54 -45 246 0 246 0 54 45 54 45
196 5 196 5 52 45 53 44 98 6 98 6 53 44 53 44 98 6 c109 7 95 -1 216 117 49
47 85 74 106 78 18 3 45 9 60 11 41 8 353 322 361 363 3 17 8 44 12 60 3 18
38 63 94 121 70 72 91 101 95 129 9 52 29 93 67 136 l33 38 5 196 5 197 43 50
c28 34 45 65 49 90 7 49 17 68 62 123 l36 44 3 2221 c1 1222 0 2235 -3 2253
-8 44 -124 160 -168 168 -18 3 -312 5 -654 3 l-622 -3 -23 -23 -23 -23 -5
-2348 -5 -2348 -33 -37 c-38 -44 -58 -85 -67 -139 -5 -32 -34 -65 -216 -248
-116 -115 -221 -214 -235 -219 -33 -13 -954 -13 -988 -1 -32 13 -334 315 -347
347 -5 14 -9 56 -9 94 0 91 -6 104 -87 186 -37 39 -77 81 -88 93 -20 23 -20
41 -25 2322 l-5 2298 -23 23 -23 23 -637 2 c-498 2 -642 0 -662 -10z"/>
<path d="M29453 10190 c-26 -11 -48 -51 -56 -104 -4 -25 -21 -56 -49 -90 l-43
-51 -3 -2970 c-1 -1633 0 -2984 3 -3002 6 -35 111 -148 152 -164 33 -12 4053
-12 4086 0 31 12 136 117 148 148 12 31 12 654 0 686 -8 20 -155 176 -220 232
-23 20 -41 20 -1322 25 l-1298 5 -23 23 -23 23 0 799 0 799 23 23 23 23 1049
5 1049 5 23 23 23 23 3 422 c2 232 0 436 -3 452 -5 28 -62 97 -124 150 -23 20
-41 20 -1022 25 l-998 5 -23 23 -23 23 0 599 0 599 23 23 23 23 1248 5 c1231
5 1249 5 1272 25 62 53 119 122 124 150 3 16 5 243 3 502 l-3 472 -23 23 -23
23 -1987 2 c-1141 1 -1996 -2 -2009 -7z"/>
<path d="M34450 10187 c-53 -27 -50 165 -47 -3199 l2 -3137 23 -23 23 -23
2049 0 2049 0 23 23 23 23 0 499 0 499 -23 23 -23 23 -1298 5 c-1281 5 -1299
5 -1322 25 -63 53 -119 122 -124 150 -3 16 -5 355 -3 752 l3 722 23 23 23 23
1049 5 1049 5 23 23 23 23 0 499 0 499 -23 23 -23 23 -998 5 c-981 5 -999 5
-1022 25 -63 53 -119 122 -124 150 -3 16 -5 265 -3 552 l3 522 23 23 23 23
1248 5 c1231 5 1249 5 1272 25 65 56 212 212 220 232 12 32 12 755 0 786 -12
31 -117 136 -148 148 -40 15 -3962 12 -3993 -4z"/>
<path d="M6093 8446 c-47 -39 -69 -46 -142 -46 -92 0 -105 -6 -187 -87 -117
-113 -104 -106 -213 -113 -93 -6 -101 -8 -136 -39 -43 -37 -84 -57 -136 -66
-28 -4 -56 -25 -125 -91 -103 -100 -111 -104 -207 -104 -75 0 -87 -5 -157 -58
-24 -18 -54 -35 -67 -37 -13 -3 -35 -8 -50 -11 -16 -3 -59 -36 -100 -78 -68
-67 -73 -75 -73 -115 0 -39 6 -49 63 -108 66 -70 102 -93 140 -93 13 0 41 -11
61 -25 20 -14 52 -36 72 -50 20 -14 49 -25 64 -25 16 0 49 -15 76 -35 62 -44
99 -62 145 -70 28 -4 55 -23 111 -78 122 -118 108 -110 217 -117 l98 -6 53
-44 53 -44 98 -6 c109 -7 95 1 217 -117 56 -55 83 -74 111 -78 52 -9 93 -29
136 -66 35 -31 43 -33 136 -39 109 -7 95 1 217 -117 56 -55 83 -74 111 -78 52
-9 93 -29 136 -66 35 -31 43 -33 136 -39 108 -7 100 -3 199 -100 99 -97 91
-93 198 -100 95 -6 98 -7 150 -47 54 -43 63 -47 123 -57 28 -5 55 -24 111 -79
122 -118 108 -110 218 -117 89 -5 103 -9 127 -32 42 -39 95 -68 124 -68 14 0
43 -11 63 -25 20 -14 52 -36 72 -50 20 -14 49 -25 64 -25 15 0 42 -10 61 -23
19 -13 52 -36 73 -50 21 -15 51 -27 66 -27 15 0 42 -10 61 -23 19 -13 52 -36
73 -50 21 -15 51 -27 66 -27 15 0 45 -12 66 -27 21 -14 54 -37 73 -50 19 -13
45 -23 58 -23 31 0 57 -13 110 -57 24 -19 59 -37 80 -40 54 -8 92 -30 103 -59
13 -33 13 -1154 1 -1187 -8 -20 -155 -176 -219 -232 -18 -15 -44 -20 -121 -25
-93 -6 -101 -8 -136 -39 -43 -37 -84 -57 -136 -66 -28 -4 -55 -23 -111 -78
-122 -118 -108 -110 -217 -117 l-98 -6 -53 -44 -53 -44 -100 -6 c-108 -7 -130
-19 -143 -79 -3 -14 -7 -36 -10 -47 -10 -55 -35 -67 -141 -74 l-100 -6 -53
-44 -53 -44 -100 -6 c-108 -7 -130 -19 -143 -79 -3 -14 -7 -36 -10 -47 -2 -12
-12 -32 -23 -45 -18 -23 -26 -24 -168 -29 l-150 -5 -38 -33 c-43 -38 -84 -58
-136 -67 -28 -4 -55 -23 -111 -78 -122 -118 -108 -110 -218 -117 l-99 -6 -53
-44 -53 -45 -95 0 -95 0 -54 45 -53 45 -148 5 c-167 6 -141 -6 -268 117 -56
55 -83 74 -111 78 -52 9 -93 29 -136 66 -35 31 -43 33 -136 39 -109 7 -95 -1
-217 117 -56 55 -83 74 -111 78 -52 9 -93 29 -136 66 -35 31 -43 33 -136 39
-109 7 -95 -1 -217 117 -56 55 -83 74 -111 78 -52 9 -93 29 -136 66 -35 31
-43 33 -136 39 -108 7 -100 3 -199 100 -99 97 -91 93 -198 100 -95 6 -98 7
-150 47 -54 43 -62 47 -124 58 -51 8 -264 217 -273 268 -3 17 -5 245 -3 504
l3 472 23 23 c21 22 30 23 172 23 147 0 149 0 177 -26 42 -40 95 -69 124 -69
14 0 43 -11 63 -25 20 -14 52 -36 72 -50 20 -14 49 -25 64 -25 15 0 45 -12 66
-27 21 -14 54 -37 73 -50 19 -13 46 -23 60 -23 29 0 82 -29 124 -68 24 -23 38
-27 127 -32 110 -7 96 1 218 -117 56 -55 83 -74 111 -78 52 -9 93 -29 136 -66
35 -31 43 -33 136 -39 108 -7 100 -3 199 -100 99 -97 91 -93 198 -100 95 -6
98 -7 150 -47 54 -43 63 -47 123 -57 28 -5 55 -24 111 -79 122 -118 108 -110
217 -117 94 -6 99 -7 144 -44 27 -22 71 -45 106 -56 34 -10 75 -30 92 -44 39
-33 79 -33 118 0 17 14 58 34 90 44 32 10 81 34 107 54 26 20 58 39 71 41 13
3 33 7 46 10 12 2 47 23 77 45 30 22 66 43 80 46 14 3 34 7 45 9 11 2 45 23
75 45 30 22 65 43 77 45 13 3 33 7 46 10 13 2 43 19 67 37 70 53 82 58 157 58
96 0 104 4 207 103 56 54 99 88 117 91 16 4 42 8 58 12 19 3 66 41 135 107 92
89 106 107 106 135 0 57 -107 152 -172 152 -27 0 -81 31 -121 68 -24 23 -38
27 -127 32 -110 7 -96 -1 -218 117 -56 55 -83 74 -111 78 -52 9 -93 29 -136
66 -35 31 -43 33 -136 39 -108 7 -100 3 -199 100 -99 97 -91 93 -198 100 -95
6 -98 7 -150 47 -54 43 -63 47 -123 57 -28 5 -55 24 -111 79 -122 118 -108
110 -216 117 -95 6 -98 7 -150 47 -54 43 -63 47 -123 57 -28 5 -55 24 -111 79
-122 118 -108 110 -218 117 -89 5 -103 9 -127 32 -42 39 -95 68 -124 68 -14 0
-43 11 -63 25 -20 14 -52 36 -72 50 -20 14 -49 25 -64 25 -15 0 -44 11 -64 25
-20 14 -52 36 -72 50 -20 14 -49 25 -64 25 -15 0 -44 11 -64 25 -20 14 -52 36
-72 50 -20 14 -49 25 -64 25 -15 0 -44 11 -64 25 -20 14 -52 36 -72 50 -20 14
-49 25 -63 25 -29 0 -82 29 -124 68 -24 23 -38 27 -127 32 -110 7 -96 -1 -218
117 -56 55 -83 74 -111 78 -52 9 -93 29 -136 66 -35 31 -43 33 -135 39 -110 7
-106 5 -200 102 -56 59 -70 68 -100 68 -30 0 -44 -9 -100 -68 -94 -97 -90 -95
-200 -102 -92 -6 -100 -8 -135 -39 -43 -37 -84 -57 -136 -66 -28 -4 -55 -23
-111 -78 -122 -118 -108 -110 -217 -117 -93 -6 -101 -8 -136 -39 -43 -37 -84
-57 -136 -66 -28 -4 -57 -25 -129 -95 -72 -70 -101 -91 -129 -95 -58 -10 -101
-33 -111 -61 -13 -33 -14 -3253 -1 -3286 8 -22 70 -91 119 -133 18 -15 44 -20
121 -25 l98 -6 53 -44 53 -44 98 -6 c109 -7 95 1 217 -117 56 -55 83 -74 111
-78 52 -9 93 -29 136 -66 35 -31 43 -33 136 -39 108 -7 100 -3 199 -100 99
-97 91 -93 198 -100 95 -6 98 -7 150 -47 54 -43 63 -47 123 -57 28 -5 57 -26
125 -92 103 -99 112 -104 204 -104 92 0 101 -5 204 -104 69 -66 97 -87 125
-91 52 -9 93 -29 136 -66 35 -31 43 -33 136 -39 88 -5 102 -9 126 -32 42 -39
95 -68 124 -68 14 0 44 -12 65 -27 21 -14 54 -37 73 -50 19 -13 46 -23 60 -23
29 0 82 -29 124 -68 24 -23 38 -27 127 -32 110 -7 96 1 218 -117 56 -55 83
-74 111 -78 52 -9 93 -29 136 -66 35 -31 43 -33 136 -39 109 -7 95 1 217 -117
56 -55 83 -74 111 -78 52 -9 93 -29 137 -67 l37 -33 146 0 146 0 53 45 53 44
99 6 c109 7 101 2 200 100 99 97 91 93 199 100 93 6 101 8 136 39 43 37 84 57
136 66 28 4 55 23 111 78 122 118 108 110 217 117 93 6 101 8 136 39 43 37 84
57 136 66 28 4 55 23 111 78 122 118 108 110 218 117 89 5 103 9 127 32 42 39
95 68 124 68 14 0 43 11 63 25 20 14 52 36 72 50 20 14 49 25 63 25 29 0 82
29 124 68 24 23 38 27 127 32 110 7 96 -1 218 117 56 55 83 74 111 79 60 10
69 14 123 57 52 40 55 41 150 47 108 7 94 -1 216 117 56 55 83 74 111 79 60
10 69 14 123 57 52 40 55 41 150 47 107 7 99 3 198 100 99 97 91 93 199 100
93 6 101 8 136 39 43 37 84 57 137 66 31 5 57 25 148 116 61 61 115 122 121
135 13 35 12 3154 -1 3188 -10 28 -53 51 -111 61 -28 4 -55 23 -111 78 -122
118 -108 110 -216 117 -95 6 -98 7 -150 47 -54 43 -63 47 -123 57 -28 5 -55
24 -111 79 -122 118 -108 110 -217 117 l-98 6 -53 44 -53 44 -98 6 c-109 7
-95 -1 -217 117 -56 55 -83 74 -111 78 -46 8 -83 26 -145 70 -27 20 -60 35
-76 35 -15 0 -45 12 -66 27 -21 14 -54 37 -73 50 -19 13 -46 23 -61 23 -15 0
-44 11 -64 25 -20 14 -52 36 -72 50 -20 14 -49 25 -63 25 -29 0 -82 29 -124
68 -24 23 -38 27 -127 32 -110 7 -97 0 -214 113 -82 81 -95 87 -186 87 -92 0
-101 5 -204 104 -69 66 -97 87 -125 91 -52 9 -93 29 -136 66 -35 31 -43 33
-136 39 -88 5 -102 9 -126 32 -42 39 -95 68 -124 68 -14 0 -44 12 -65 27 -21
14 -54 37 -73 50 -19 13 -46 23 -61 23 -15 0 -45 12 -66 27 -21 14 -54 37 -73
50 -19 13 -46 23 -61 23 -15 0 -44 11 -64 25 -20 14 -52 36 -72 50 -20 14 -48
25 -61 25 -29 0 -55 13 -106 52 -20 17 -64 38 -97 48 -33 10 -74 30 -91 44
-38 32 -79 33 -116 2z"/>
<path d="M15443 2984 c-18 -9 -51 -36 -73 -60 -50 -54 -52 -86 -10 -139 17
-21 33 -50 36 -64 16 -70 31 -95 109 -177 65 -67 86 -95 90 -123 9 -52 29 -93
67 -136 l33 -38 5 -248 5 -247 50 -54 c122 -131 168 -131 290 0 l50 54 5 198
c4 152 8 201 20 216 8 10 27 34 42 51 15 18 30 50 34 70 13 76 52 104 87 65
13 -14 17 -38 17 -95 0 -102 7 -117 105 -215 67 -66 86 -92 90 -121 14 -86 39
-111 126 -125 28 -5 57 -27 129 -96 110 -106 99 -102 326 -98 l171 3 38 33
c43 39 84 58 138 67 50 8 251 206 268 264 6 23 9 163 7 403 -3 423 2 401 -106
431 -50 14 -70 28 -143 98 -46 45 -94 85 -107 90 -13 5 -146 9 -295 9 -313 0
-299 3 -387 -93 -32 -34 -82 -75 -111 -91 -30 -16 -62 -38 -71 -50 -9 -11 -20
-17 -24 -13 -4 4 0 15 9 25 38 42 3 126 -79 188 -30 23 -49 29 -105 32 -112 7
-130 0 -216 -84 -111 -107 -120 -114 -165 -114 -44 0 -84 31 -93 74 -3 14 -7
37 -10 50 -13 63 -31 71 -182 74 -112 2 -144 -1 -170 -14z m1829 -412 c22 -22
23 -28 23 -222 0 -255 8 -244 -167 -248 -166 -5 -175 -2 -248 69 -73 72 -80
89 -80 179 0 89 7 106 76 174 75 75 76 76 236 73 128 -2 139 -4 160 -25z"/>
<path d="M17881 2925 l-76 -74 -3 -423 c-2 -281 0 -435 8 -460 12 -42 301
-341 346 -358 33 -13 355 -13 389 0 36 14 324 305 341 346 20 49 21 939 0 988
-21 49 -53 58 -205 54 -193 -5 -175 41 -181 -449 l-5 -401 -28 -24 c-55 -47
-98 -36 -186 51 l-76 74 -5 299 -5 300 -50 54 c-118 127 -154 130 -264 23z"/>
<path d="M19048 2984 c-48 -25 -49 -46 -46 -660 l3 -572 50 -54 c111 -120 152
-127 247 -42 76 68 85 80 93 130 10 56 31 84 61 84 21 0 56 -30 155 -129 142
-144 146 -146 268 -139 67 3 71 5 123 53 115 106 125 151 53 236 -32 38 -47
66 -55 105 -7 30 -24 68 -41 90 -35 45 -37 83 -5 121 12 15 28 38 35 50 14 27
16 450 2 486 -13 32 -216 235 -248 248 -43 16 -663 11 -695 -7z m504 -401 c22
-20 23 -41 1 -65 -32 -36 -123 -14 -123 30 0 46 83 70 122 35z"/>
<path d="M20743 2984 c-18 -9 -51 -36 -73 -60 -47 -51 -52 -88 -16 -131 31
-37 42 -61 50 -105 4 -21 25 -60 49 -90 l42 -53 5 -346 c5 -329 6 -348 25
-370 31 -36 187 -189 214 -210 31 -25 91 -25 122 0 32 25 200 191 219 215 12
16 16 81 20 366 l5 347 30 37 c59 74 65 92 65 212 0 128 -11 169 -51 189 -43
23 -660 21 -706 -1z"/>
<path d="M21649 2985 c-15 -8 -32 -29 -38 -46 -14 -40 -16 -1146 -2 -1182 5
-14 38 -52 72 -86 70 -68 91 -75 199 -69 100 5 113 20 120 141 9 172 39 172
205 2 135 -138 147 -145 247 -145 85 0 123 16 178 76 50 54 51 79 5 145 -33
48 -35 57 -35 128 0 72 -2 81 -35 127 -43 61 -44 88 -2 144 l32 44 3 216 c2
133 -1 229 -7 251 -13 42 -203 243 -246 259 -44 17 -664 12 -696 -5z m503
-402 c22 -20 23 -41 1 -65 -32 -36 -123 -14 -123 30 0 46 83 70 122 35z"/>
<path d="M22855 2991 c-33 -14 -133 -115 -145 -145 -6 -17 -10 -166 -10 -399
0 -407 -4 -375 61 -459 15 -18 32 -58 39 -90 10 -53 17 -63 125 -172 133 -135
115 -129 351 -124 l170 3 50 43 c34 28 65 45 90 49 80 12 104 38 118 123 4 20
23 56 46 83 22 27 42 63 45 80 3 18 5 242 3 499 l-3 467 -23 23 c-21 22 -30
23 -172 23 -215 0 -194 48 -200 -446 l-5 -401 -28 -24 c-55 -47 -98 -36 -186
51 l-76 74 -5 350 c-6 422 3 395 -138 398 -48 2 -96 -1 -107 -6z"/>
<path d="M24150 2989 c-41 -17 -229 -218 -241 -258 -6 -22 -9 -103 -7 -203 3
-193 5 -197 99 -227 29 -10 58 -25 63 -34 17 -26 -4 -48 -63 -68 -93 -30 -96
-37 -96 -203 0 -163 7 -181 74 -192 81 -13 121 -47 121 -104 0 -34 29 -80 56
-90 33 -13 455 -13 487 -1 32 13 235 216 248 248 5 13 9 125 9 248 l0 223 -35
51 c-19 28 -35 60 -35 71 0 11 16 43 35 71 32 46 35 58 35 119 0 82 -9 109
-54 161 -24 28 -37 57 -45 98 -19 99 -8 96 -340 98 -174 1 -296 -2 -311 -8z"/>
<path d="M25050 2987 c-41 -21 -50 -52 -50 -182 0 -130 5 -146 65 -221 l30
-37 5 -297 5 -297 30 -37 c49 -62 65 -90 65 -114 0 -37 24 -73 93 -139 74 -71
119 -83 170 -43 56 44 219 214 228 237 5 13 9 168 9 343 0 175 4 329 9 342 5
13 41 57 81 98 103 107 110 117 110 163 0 36 -7 47 -75 116 l-74 76 -338 3
c-259 2 -344 -1 -363 -11z"/>
<path d="M26753 2990 c-25 -10 -53 -58 -53 -90 0 -52 -49 -100 -103 -100 -18
0 -84 -32 -88 -42 0 -2 -4 -49 -8 -105 l-7 -102 -44 -53 -45 -53 0 -95 0 -95
45 -53 44 -53 6 -99 c5 -78 10 -104 25 -121 63 -73 311 -312 332 -320 31 -12
454 -12 485 0 14 5 56 40 94 78 104 101 106 102 164 113 70 13 87 30 101 101
8 41 21 70 45 98 51 59 54 75 54 304 0 230 -1 233 -62 310 -17 20 -32 56 -38
87 -12 65 -31 88 -79 96 -81 13 -121 47 -121 104 0 34 -29 80 -56 90 -32 12
-661 12 -691 0z m497 -403 c18 -9 31 -30 47 -80 12 -38 34 -82 48 -98 14 -17
25 -43 25 -59 0 -16 -11 -42 -25 -59 -14 -16 -36 -60 -48 -98 -30 -91 -37 -94
-209 -91 -192 4 -182 -8 -186 236 -3 202 2 226 48 249 34 17 266 17 300 0z"/>
<path d="M27950 2988 c-50 -27 -50 -24 -47 -599 2 -602 -2 -572 76 -585 81
-13 121 -47 121 -104 0 -34 29 -80 56 -90 32 -13 455 -13 487 -1 46 18 245
225 252 262 3 19 5 269 3 556 l-3 522 -23 23 c-20 21 -32 23 -121 23 l-98 0
-46 -38 c-26 -21 -59 -55 -75 -74 l-27 -36 -5 -350 -5 -349 -28 -24 c-38 -33
-96 -33 -134 0 l-28 24 -5 401 c-6 491 13 445 -188 449 -97 2 -144 -1 -162
-10z"/>
<path d="M29150 2987 c-51 -26 -50 -20 -47 -650 l2 -588 76 -74 c102 -100 128
-102 221 -19 76 68 85 80 93 130 10 56 31 84 61 84 21 0 56 -30 155 -129 142
-144 146 -146 270 -139 l71 4 74 76 c67 68 74 79 74 115 0 46 -6 55 -114 167
-84 88 -91 104 -84 214 3 64 6 71 48 121 l45 53 3 171 c2 95 1 186 -3 204 -7
37 -207 247 -251 264 -40 15 -663 11 -694 -4z"/>
<path d="M31153 2990 c-26 -11 -48 -51 -56 -104 -4 -25 -21 -56 -49 -89 -42
-50 -42 -51 -48 -148 -7 -108 -3 -100 -100 -199 -102 -104 -94 -85 -100 -250
l-5 -148 -45 -53 -45 -54 0 -98 0 -98 76 -74 c69 -68 80 -75 116 -75 49 0 53
4 212 160 69 67 135 126 149 131 31 12 154 12 185 0 46 -18 146 -129 152 -169
16 -100 44 -122 155 -122 92 0 103 6 191 94 103 103 116 103 217 1 40 -42 85
-80 98 -85 33 -13 455 -13 487 -1 14 5 52 37 85 71 52 53 62 69 72 117 15 71
45 103 97 103 49 0 63 -11 212 -159 69 -67 135 -127 148 -132 33 -12 455 -12
488 1 48 18 234 217 246 264 23 90 51 115 90 80 16 -14 19 -31 19 -95 0 -43 5
-90 10 -105 13 -33 114 -132 148 -145 31 -12 553 -12 584 0 34 13 135 112 148
145 13 35 13 157 0 191 -5 14 -44 58 -85 98 -85 82 -94 112 -51 164 39 47 46
69 46 147 0 69 -2 78 -29 108 l-29 33 -140 5 c-145 5 -172 13 -172 51 0 46 28
50 334 47 282 -3 286 -3 308 -26 23 -23 23 -23 28 -421 6 -441 4 -433 71 -445
16 -3 42 -8 58 -12 15 -3 52 -25 81 -50 62 -53 111 -59 157 -20 l28 24 5 451
c6 539 -8 491 150 501 146 9 145 8 145 200 0 142 -1 151 -23 172 l-23 23 -849
0 -849 0 -23 -23 c-23 -22 -23 -25 -28 -366 -5 -368 -7 -376 -56 -376 -31 0
-106 68 -129 116 -29 62 -18 190 20 238 71 90 79 118 46 171 -29 48 -205 223
-235 234 -34 14 -555 15 -589 2 -40 -15 -144 -124 -150 -157 -3 -16 -9 -44
-12 -61 -19 -95 -171 -97 -189 -3 -3 17 -9 44 -12 61 -7 36 -109 144 -151 160
-33 12 -554 12 -587 -1 -28 -10 -51 -53 -61 -112 -4 -28 -23 -54 -83 -115 -42
-43 -85 -89 -94 -103 -34 -48 -18 -118 36 -170 15 -14 33 -48 42 -80 20 -68
46 -98 93 -106 77 -13 105 -58 56 -90 -19 -12 -43 -15 -107 -13 -99 5 -115 15
-249 162 l-84 91 -5 147 c-6 168 8 141 -139 287 -52 52 -105 98 -118 103 -31
11 -261 11 -290 -1z m1912 -514 c14 -14 27 -42 31 -66 9 -56 46 -98 92 -106
78 -13 106 -58 57 -90 -19 -12 -43 -15 -108 -13 l-84 4 -54 48 c-74 66 -99
103 -99 150 0 84 107 131 165 73z"/>
<path d="M14054 2690 c-29 -12 -134 -118 -145 -147 -5 -13 -9 -145 -9 -293 0
-148 4 -280 9 -293 12 -31 117 -136 148 -148 32 -12 454 -12 486 0 31 12 136
117 148 148 5 13 9 145 9 293 0 148 -4 280 -9 293 -12 31 -117 136 -148 148
-30 11 -460 11 -489 -1z"/>
<path d="M36750 2687 c-49 -25 -50 -34 -48 -449 l3 -387 23 -23 c22 -22 29
-23 245 -26 122 -2 236 -1 254 3 35 6 148 111 164 152 12 32 12 554 0 586 -12
31 -117 136 -148 148 -38 14 -463 11 -493 -4z"/>
</g>
</svg>
